<mxfile host="app.diagrams.net" agent="Mozilla/5.0 (Windows NT 10.0; Win64; x64) AppleWebKit/537.36 (KHTML, like Gecko) Chrome/128.0.0.0 Safari/537.36" version="24.7.7">
  <diagram id="R2lEEEUBdFMjLlhIrx00" name="Page-1">
    <mxGraphModel dx="1114" dy="566" grid="1" gridSize="10" guides="1" tooltips="1" connect="1" arrows="1" fold="1" page="1" pageScale="1" pageWidth="850" pageHeight="1100" math="0" shadow="0" extFonts="Permanent Marker^https://fonts.googleapis.com/css?family=Permanent+Marker">
      <root>
        <mxCell id="0" />
        <mxCell id="1" parent="0" />
        <mxCell id="fpitfX9aMTvcMxyNjS5X-19" style="edgeStyle=orthogonalEdgeStyle;rounded=0;orthogonalLoop=1;jettySize=auto;html=1;entryX=0;entryY=0.5;entryDx=0;entryDy=0;" edge="1" parent="1" source="fpitfX9aMTvcMxyNjS5X-2" target="fpitfX9aMTvcMxyNjS5X-18">
          <mxGeometry relative="1" as="geometry" />
        </mxCell>
        <mxCell id="fpitfX9aMTvcMxyNjS5X-2" value="Pedidos" style="whiteSpace=wrap;html=1;align=center;" vertex="1" parent="1">
          <mxGeometry x="410" y="80" width="100" height="40" as="geometry" />
        </mxCell>
        <mxCell id="fpitfX9aMTvcMxyNjS5X-9" style="edgeStyle=orthogonalEdgeStyle;rounded=0;orthogonalLoop=1;jettySize=auto;html=1;entryX=0;entryY=0.5;entryDx=0;entryDy=0;" edge="1" parent="1" source="fpitfX9aMTvcMxyNjS5X-3" target="fpitfX9aMTvcMxyNjS5X-8">
          <mxGeometry relative="1" as="geometry" />
        </mxCell>
        <mxCell id="fpitfX9aMTvcMxyNjS5X-3" value="Clientes" style="whiteSpace=wrap;html=1;align=center;" vertex="1" parent="1">
          <mxGeometry x="100" y="80" width="100" height="40" as="geometry" />
        </mxCell>
        <mxCell id="fpitfX9aMTvcMxyNjS5X-12" style="edgeStyle=orthogonalEdgeStyle;rounded=0;orthogonalLoop=1;jettySize=auto;html=1;entryX=0.5;entryY=1;entryDx=0;entryDy=0;" edge="1" parent="1" source="fpitfX9aMTvcMxyNjS5X-4" target="fpitfX9aMTvcMxyNjS5X-11">
          <mxGeometry relative="1" as="geometry" />
        </mxCell>
        <mxCell id="fpitfX9aMTvcMxyNjS5X-4" value="Platos" style="whiteSpace=wrap;html=1;align=center;" vertex="1" parent="1">
          <mxGeometry x="410" y="260" width="100" height="40" as="geometry" />
        </mxCell>
        <mxCell id="fpitfX9aMTvcMxyNjS5X-6" value="Transporte" style="shape=ext;margin=3;double=1;whiteSpace=wrap;html=1;align=center;" vertex="1" parent="1">
          <mxGeometry x="680" y="80" width="100" height="40" as="geometry" />
        </mxCell>
        <mxCell id="fpitfX9aMTvcMxyNjS5X-10" value="" style="edgeStyle=orthogonalEdgeStyle;rounded=0;orthogonalLoop=1;jettySize=auto;html=1;" edge="1" parent="1" source="fpitfX9aMTvcMxyNjS5X-8" target="fpitfX9aMTvcMxyNjS5X-2">
          <mxGeometry relative="1" as="geometry" />
        </mxCell>
        <mxCell id="fpitfX9aMTvcMxyNjS5X-8" value="tienen" style="shape=rhombus;perimeter=rhombusPerimeter;whiteSpace=wrap;html=1;align=center;" vertex="1" parent="1">
          <mxGeometry x="260" y="70" width="120" height="60" as="geometry" />
        </mxCell>
        <mxCell id="fpitfX9aMTvcMxyNjS5X-13" style="edgeStyle=orthogonalEdgeStyle;rounded=0;orthogonalLoop=1;jettySize=auto;html=1;entryX=0.5;entryY=1;entryDx=0;entryDy=0;" edge="1" parent="1" source="fpitfX9aMTvcMxyNjS5X-11" target="fpitfX9aMTvcMxyNjS5X-2">
          <mxGeometry relative="1" as="geometry" />
        </mxCell>
        <mxCell id="fpitfX9aMTvcMxyNjS5X-11" value="estan en" style="shape=rhombus;perimeter=rhombusPerimeter;whiteSpace=wrap;html=1;align=center;" vertex="1" parent="1">
          <mxGeometry x="400" y="160" width="120" height="60" as="geometry" />
        </mxCell>
        <mxCell id="fpitfX9aMTvcMxyNjS5X-14" value="&lt;b&gt;0.....N&lt;/b&gt;" style="text;strokeColor=none;fillColor=none;spacingLeft=4;spacingRight=4;overflow=hidden;rotatable=0;points=[[0,0.5],[1,0.5]];portConstraint=eastwest;fontSize=12;whiteSpace=wrap;html=1;" vertex="1" parent="1">
          <mxGeometry x="410" y="140" width="40" height="30" as="geometry" />
        </mxCell>
        <mxCell id="fpitfX9aMTvcMxyNjS5X-15" value="&lt;b&gt;0....N&lt;/b&gt;" style="text;strokeColor=none;fillColor=none;spacingLeft=4;spacingRight=4;overflow=hidden;rotatable=0;points=[[0,0.5],[1,0.5]];portConstraint=eastwest;fontSize=12;whiteSpace=wrap;html=1;" vertex="1" parent="1">
          <mxGeometry x="260" y="60" width="40" height="30" as="geometry" />
        </mxCell>
        <mxCell id="fpitfX9aMTvcMxyNjS5X-20" value="" style="edgeStyle=orthogonalEdgeStyle;rounded=0;orthogonalLoop=1;jettySize=auto;html=1;" edge="1" parent="1" source="fpitfX9aMTvcMxyNjS5X-18" target="fpitfX9aMTvcMxyNjS5X-6">
          <mxGeometry relative="1" as="geometry" />
        </mxCell>
        <mxCell id="fpitfX9aMTvcMxyNjS5X-18" value="necesita" style="shape=rhombus;perimeter=rhombusPerimeter;whiteSpace=wrap;html=1;align=center;" vertex="1" parent="1">
          <mxGeometry x="530" y="70" width="120" height="60" as="geometry" />
        </mxCell>
        <mxCell id="fpitfX9aMTvcMxyNjS5X-21" value="&lt;b&gt;1....1&lt;/b&gt;" style="text;strokeColor=none;fillColor=none;spacingLeft=4;spacingRight=4;overflow=hidden;rotatable=0;points=[[0,0.5],[1,0.5]];portConstraint=eastwest;fontSize=12;whiteSpace=wrap;html=1;" vertex="1" parent="1">
          <mxGeometry x="610" y="60" width="40" height="30" as="geometry" />
        </mxCell>
        <mxCell id="fpitfX9aMTvcMxyNjS5X-23" value="" style="edgeStyle=orthogonalEdgeStyle;rounded=0;orthogonalLoop=1;jettySize=auto;html=1;" edge="1" parent="1" source="fpitfX9aMTvcMxyNjS5X-22" target="fpitfX9aMTvcMxyNjS5X-6">
          <mxGeometry relative="1" as="geometry" />
        </mxCell>
        <mxCell id="fpitfX9aMTvcMxyNjS5X-22" value="Disponibilidad" style="ellipse;whiteSpace=wrap;html=1;align=center;" vertex="1" parent="1">
          <mxGeometry x="590" y="160" width="100" height="40" as="geometry" />
        </mxCell>
        <mxCell id="fpitfX9aMTvcMxyNjS5X-25" value="" style="edgeStyle=orthogonalEdgeStyle;rounded=0;orthogonalLoop=1;jettySize=auto;html=1;" edge="1" parent="1" source="fpitfX9aMTvcMxyNjS5X-24" target="fpitfX9aMTvcMxyNjS5X-3">
          <mxGeometry relative="1" as="geometry" />
        </mxCell>
        <mxCell id="fpitfX9aMTvcMxyNjS5X-24" value="locacion" style="ellipse;whiteSpace=wrap;html=1;align=center;" vertex="1" parent="1">
          <mxGeometry x="90" y="160" width="100" height="40" as="geometry" />
        </mxCell>
        <mxCell id="fpitfX9aMTvcMxyNjS5X-27" value="" style="edgeStyle=orthogonalEdgeStyle;rounded=0;orthogonalLoop=1;jettySize=auto;html=1;" edge="1" parent="1" source="fpitfX9aMTvcMxyNjS5X-26" target="fpitfX9aMTvcMxyNjS5X-6">
          <mxGeometry relative="1" as="geometry" />
        </mxCell>
        <mxCell id="fpitfX9aMTvcMxyNjS5X-26" value="locacion" style="ellipse;whiteSpace=wrap;html=1;align=center;" vertex="1" parent="1">
          <mxGeometry x="740" y="160" width="100" height="40" as="geometry" />
        </mxCell>
        <mxCell id="fpitfX9aMTvcMxyNjS5X-29" style="edgeStyle=orthogonalEdgeStyle;rounded=0;orthogonalLoop=1;jettySize=auto;html=1;exitX=0.5;exitY=1;exitDx=0;exitDy=0;entryX=0.41;entryY=1.075;entryDx=0;entryDy=0;entryPerimeter=0;" edge="1" parent="1" source="fpitfX9aMTvcMxyNjS5X-28" target="fpitfX9aMTvcMxyNjS5X-22">
          <mxGeometry relative="1" as="geometry">
            <mxPoint x="630" y="270" as="targetPoint" />
          </mxGeometry>
        </mxCell>
        <mxCell id="fpitfX9aMTvcMxyNjS5X-28" value="Busqueda de disponibilidad" style="ellipse;whiteSpace=wrap;html=1;align=center;dashed=1;" vertex="1" parent="1">
          <mxGeometry x="590" y="290" width="100" height="40" as="geometry" />
        </mxCell>
        <mxCell id="fpitfX9aMTvcMxyNjS5X-31" style="edgeStyle=orthogonalEdgeStyle;rounded=0;orthogonalLoop=1;jettySize=auto;html=1;" edge="1" parent="1" source="fpitfX9aMTvcMxyNjS5X-30">
          <mxGeometry relative="1" as="geometry">
            <mxPoint x="720" y="140" as="targetPoint" />
          </mxGeometry>
        </mxCell>
        <mxCell id="fpitfX9aMTvcMxyNjS5X-30" value="AÃ±o vehiculo" style="ellipse;whiteSpace=wrap;html=1;align=center;dashed=1;" vertex="1" parent="1">
          <mxGeometry x="710" y="280" width="100" height="40" as="geometry" />
        </mxCell>
        <mxCell id="fpitfX9aMTvcMxyNjS5X-32" value="Usar case when" style="ellipse;whiteSpace=wrap;html=1;align=center;" vertex="1" parent="1">
          <mxGeometry x="280" y="370" width="100" height="40" as="geometry" />
        </mxCell>
      </root>
    </mxGraphModel>
  </diagram>
</mxfile>
